<svg id="Group_125" data-name="Group 125" xmlns="http://www.w3.org/2000/svg" xmlns:xlink="http://www.w3.org/1999/xlink" width="302" height="314.039" viewBox="0 0 302 314.039">
  <defs>
    <clipPath id="clip-path">
      <rect id="Rectangle_18379" data-name="Rectangle 18379" width="302" height="314.039" fill="none"/>
    </clipPath>
    <clipPath id="clip-path-3">
      <rect id="Rectangle_18333" data-name="Rectangle 18333" width="253.755" height="185.769" fill="none"/>
    </clipPath>
    <clipPath id="clip-path-4">
      <rect id="Rectangle_18334" data-name="Rectangle 18334" width="253.755" height="194.005" fill="none"/>
    </clipPath>
    <clipPath id="clip-path-6">
      <rect id="Rectangle_18336" data-name="Rectangle 18336" width="299.248" height="71.543" fill="none"/>
    </clipPath>
    <clipPath id="clip-path-7">
      <rect id="Rectangle_18337" data-name="Rectangle 18337" width="299.258" height="68.995" fill="none"/>
    </clipPath>
    <clipPath id="clip-path-8">
      <rect id="Rectangle_18339" data-name="Rectangle 18339" width="152.432" height="103.85" fill="none"/>
    </clipPath>
    <clipPath id="clip-path-9">
      <rect id="Rectangle_18342" data-name="Rectangle 18342" width="152.432" height="4.112" fill="none"/>
    </clipPath>
    <clipPath id="clip-path-10">
      <rect id="Rectangle_18343" data-name="Rectangle 18343" width="152.432" height="27.314" fill="none"/>
    </clipPath>
    <clipPath id="clip-path-11">
      <rect id="Rectangle_18344" data-name="Rectangle 18344" width="111.02" height="28.979" fill="none"/>
    </clipPath>
    <clipPath id="clip-path-12">
      <rect id="Rectangle_18347" data-name="Rectangle 18347" width="3.484" height="50.164" fill="none"/>
    </clipPath>
    <clipPath id="clip-path-13">
      <rect id="Rectangle_18349" data-name="Rectangle 18349" width="44.934" height="50.164" fill="none"/>
    </clipPath>
    <clipPath id="clip-path-14">
      <rect id="Rectangle_18351" data-name="Rectangle 18351" width="17.13" height="20.688" fill="none"/>
    </clipPath>
    <clipPath id="clip-path-16">
      <rect id="Rectangle_18353" data-name="Rectangle 18353" width="3.893" height="9.121" fill="none"/>
    </clipPath>
    <clipPath id="clip-path-17">
      <rect id="Rectangle_18356" data-name="Rectangle 18356" width="3.485" height="50.164" fill="none"/>
    </clipPath>
    <clipPath id="clip-path-18">
      <rect id="Rectangle_18358" data-name="Rectangle 18358" width="44.935" height="50.164" fill="none"/>
    </clipPath>
    <clipPath id="clip-path-19">
      <rect id="Rectangle_18360" data-name="Rectangle 18360" width="17.129" height="20.688" fill="none"/>
    </clipPath>
    <clipPath id="clip-path-27">
      <rect id="Rectangle_18372" data-name="Rectangle 18372" width="49.051" height="37.298" fill="none"/>
    </clipPath>
    <clipPath id="clip-path-28">
      <rect id="Rectangle_18375" data-name="Rectangle 18375" width="49.175" height="37.305" fill="none"/>
    </clipPath>
    <clipPath id="clip-path-29">
      <rect id="Rectangle_18376" data-name="Rectangle 18376" width="19.048" height="13.515" fill="none"/>
    </clipPath>
    <clipPath id="clip-path-30">
      <rect id="Rectangle_18377" data-name="Rectangle 18377" width="19.048" height="13.742" fill="none"/>
    </clipPath>
  </defs>
  <g id="Group_124" data-name="Group 124" clip-path="url(#clip-path)">
    <g id="Group_123" data-name="Group 123" transform="translate(0 -0.001)">
      <g id="Group_122" data-name="Group 122" clip-path="url(#clip-path)">
        <path id="Path_7277" data-name="Path 7277" d="M442.936,116.9A116.9,116.9,0,1,1,326.035,0a116.9,116.9,0,0,1,116.9,116.9" transform="translate(-175.037 0.004)" fill="#ffca28"/>
        <path id="Path_7278" data-name="Path 7278" d="M401.7,784.078V921.833H147.944V784.078l.256-.114,7.123-3.157,20.344-9.019,7.118-3.157,20.344-9.018,7.109-3.152,20.344-9.019,7.118-3.157,20.344-9.018,7.118-3.157,9.658-4.281,9.658,4.281,7.118,3.157,20.344,9.018,7.118,3.157L339.4,756.46l7.109,3.152,20.344,9.018,7.118,3.157,20.345,9.019,7.122,3.157Z" transform="translate(-123.824 -609.165)" fill="#675fb8"/>
        <g id="Group_40" data-name="Group 40" transform="translate(24.12 122.943)" opacity="0.3">
          <g id="Group_39" data-name="Group 39">
            <g id="Group_38" data-name="Group 38" clip-path="url(#clip-path-3)">
              <rect id="Rectangle_18322" data-name="Rectangle 18322" width="253.755" height="3.152" transform="translate(0 182.616)" fill="#390075"/>
              <rect id="Rectangle_18323" data-name="Rectangle 18323" width="253.755" height="3.157" transform="translate(0 170.441)" fill="#390075"/>
              <rect id="Rectangle_18324" data-name="Rectangle 18324" width="253.755" height="3.157" transform="translate(0 158.265)" fill="#390075"/>
              <rect id="Rectangle_18325" data-name="Rectangle 18325" width="253.755" height="3.152" transform="translate(0 146.094)" fill="#390075"/>
              <rect id="Rectangle_18326" data-name="Rectangle 18326" width="253.755" height="3.157" transform="translate(0 133.919)" fill="#390075"/>
              <rect id="Rectangle_18327" data-name="Rectangle 18327" width="253.755" height="3.157" transform="translate(0 121.743)" fill="#390075"/>
              <rect id="Rectangle_18328" data-name="Rectangle 18328" width="253.755" height="3.157" transform="translate(0 109.567)" fill="#390075"/>
              <rect id="Rectangle_18329" data-name="Rectangle 18329" width="253.755" height="3.157" transform="translate(0 97.396)" fill="#390075"/>
              <rect id="Rectangle_18330" data-name="Rectangle 18330" width="253.755" height="3.157" transform="translate(0 85.221)" fill="#390075"/>
              <rect id="Rectangle_18331" data-name="Rectangle 18331" width="253.755" height="3.157" transform="translate(0 73.045)" fill="#390075"/>
              <rect id="Rectangle_18332" data-name="Rectangle 18332" width="253.755" height="3.157" transform="translate(0 60.874)" fill="#390075"/>
              <path id="Path_7279" data-name="Path 7279" d="M402.757,1055.935H149.514l7.123-3.157h239Z" transform="translate(-149.258 -1004.08)" fill="#390075"/>
              <path id="Path_7280" data-name="Path 7280" d="M516.295,981.255H317.986L325.1,978.1H509.177Z" transform="translate(-290.263 -941.575)" fill="#390075"/>
              <path id="Path_7281" data-name="Path 7281" d="M629.814,906.6H486.43l7.109-3.152H622.705Z" transform="translate(-431.245 -879.093)" fill="#390075"/>
              <path id="Path_7282" data-name="Path 7282" d="M743.3,831.922H654.818l7.118-3.157h74.242Z" transform="translate(-572.18 -816.589)" fill="#390075"/>
              <path id="Path_7283" data-name="Path 7283" d="M856.815,757.242H823.263l7.118-3.157H849.7Z" transform="translate(-713.161 -754.084)" fill="#390075"/>
            </g>
          </g>
        </g>
        <g id="Group_43" data-name="Group 43" transform="translate(24.12 118.663)" opacity="0.5">
          <g id="Group_42" data-name="Group 42">
            <g id="Group_41" data-name="Group 41" clip-path="url(#clip-path-4)">
              <path id="Path_7284" data-name="Path 7284" d="M153.756,801.078a19.166,19.166,0,0,1,11.4-17.484l23.211-10.29,20.344-9.019,7.109-3.152,20.344-9.018,7.118-3.157,20.344-9.019,7.118-3.157L280.4,732.5l9.658,4.281,7.118,3.157,20.344,9.019,7.118,3.157,20.344,9.018,7.109,3.152,20.344,9.019,7.118,3.157L399.9,785.48l1.8.8v-2.2l-.256-.114-7.123-3.157-20.344-9.019-7.118-3.157-20.344-9.019-7.109-3.152-20.344-9.019-7.118-3.157L291.6,735.265l-7.118-3.157-9.658-4.281-9.658,4.281-7.118,3.157L237.7,744.284l-7.118,3.157-20.344,9.019-7.109,3.152-20.344,9.019-7.118,3.157-20.344,9.019-7.123,3.157-.256.114V921.833h5.58Z" transform="translate(-147.944 -727.827)" fill="#fff"/>
            </g>
          </g>
        </g>
        <g id="Group_46" data-name="Group 46" transform="translate(24.12 118.663)" opacity="0.3">
          <g id="Group_45" data-name="Group 45">
            <g id="Group_44" data-name="Group 44" clip-path="url(#clip-path-4)">
              <path id="Path_7285" data-name="Path 7285" d="M401.444,783.963l-7.123-3.157-20.344-9.019-7.118-3.157-20.344-9.019-7.109-3.152-20.345-9.019-7.118-3.157L291.6,735.265l-7.118-3.157-9.658-4.281-9.658,4.281-7.118,3.157-6.729,2.983,5.037,1.958,20.344,7.9,7.118,2.767,20.344,7.9,7.109,2.763L347.946,775.8a28.811,28.811,0,0,1,18.376,26.676l.134,21.461a79.8,79.8,0,0,1-79.8,79.8H147.945v18.1H401.7V784.077Z" transform="translate(-147.945 -727.827)" fill="#390075"/>
            </g>
          </g>
        </g>
        <path id="Path_7286" data-name="Path 7286" d="M307.219,700.991l-1.839,4.149a5.072,5.072,0,0,1-6.692,2.582L284.9,701.614l-126.878-56.25L31.149,701.614l-13.784,6.109a5.072,5.072,0,0,1-6.692-2.582l-1.839-4.149a5.072,5.072,0,0,1,2.581-6.692l19.734-8.75,108.763-48.218,18.115-8.032,18.115,8.032L284.9,685.55l19.734,8.75a5.072,5.072,0,0,1,2.581,6.692" transform="translate(-7.029 -526.701)" fill="#546e7a"/>
        <g id="Group_49" data-name="Group 49" transform="translate(1.374 102.599)" opacity="0.5">
          <g id="Group_48" data-name="Group 48">
            <g id="Group_47" data-name="Group 47" clip-path="url(#clip-path-6)">
              <path id="Path_7287" data-name="Path 7287" d="M11.439,698.117l19.734-8.75,108.763-48.218,16.448-7.292a4.114,4.114,0,0,1,3.335,0l16.447,7.292,108.763,48.218,19.734,8.75a5.051,5.051,0,0,1,2.638,2.725,5.068,5.068,0,0,0-2.638-6.543l-19.734-8.75L176.165,637.331,158.051,629.3l-18.115,8.032L31.173,685.549,11.439,694.3A5.068,5.068,0,0,0,8.8,700.842a5.051,5.051,0,0,1,2.638-2.725" transform="translate(-8.427 -629.299)" fill="#fff"/>
            </g>
          </g>
        </g>
        <g id="Group_52" data-name="Group 52" transform="translate(1.369 112.463)" opacity="0.3">
          <g id="Group_51" data-name="Group 51">
            <g id="Group_50" data-name="Group 50" clip-path="url(#clip-path-7)">
              <path id="Path_7288" data-name="Path 7288" d="M304.638,744.933l-1.318-.585c-.042.123-.085.246-.137.367l-1.789,4.15a4.883,4.883,0,0,1-6.511,2.582l-13.411-6.109L161,690.443a7.168,7.168,0,0,0-5.945,0l-120.472,54.9-13.411,6.109a4.883,4.883,0,0,1-6.511-2.582l-1.789-4.15c-.052-.121-.095-.244-.137-.367l-1.318.585a5.072,5.072,0,0,0-2.581,6.692l1.839,4.149a5.072,5.072,0,0,0,6.692,2.582l13.784-6.109L158.027,696,284.9,752.248l13.784,6.109a5.072,5.072,0,0,0,6.692-2.582l1.839-4.149a5.072,5.072,0,0,0-2.581-6.692" transform="translate(-8.398 -689.798)" fill="#390075"/>
            </g>
          </g>
        </g>
        <path id="Path_7289" data-name="Path 7289" d="M293.712,702.5a6.419,6.419,0,0,1-2.608-.556L151,639.827,10.892,701.94a6.442,6.442,0,0,1-8.5-3.28L.553,694.51a6.45,6.45,0,0,1,3.279-8.5l146.611-65a1.37,1.37,0,0,1,1.111,0l146.611,65a6.442,6.442,0,0,1,3.279,8.5l-1.839,4.149a6.46,6.46,0,0,1-5.893,3.836M151,636.957a1.373,1.373,0,0,1,.555.118l126.878,56.25,13.784,6.109a3.7,3.7,0,0,0,4.884-1.885l1.839-4.149h0a3.706,3.706,0,0,0-1.884-4.883L151,623.763,4.942,688.516A3.706,3.706,0,0,0,3.059,693.4L4.9,697.549a3.7,3.7,0,0,0,4.884,1.885l13.784-6.109,126.877-56.25a1.373,1.373,0,0,1,.555-.118" transform="translate(0 -519.665)" fill="#390075"/>
        <rect id="Rectangle_18338" data-name="Rectangle 18338" width="152.432" height="103.85" transform="translate(74.782 208.818)" fill="#546e7a"/>
        <g id="Group_55" data-name="Group 55" transform="translate(74.782 208.818)" opacity="0.3">
          <g id="Group_54" data-name="Group 54">
            <g id="Group_53" data-name="Group 53" clip-path="url(#clip-path-8)">
              <path id="Path_7290" data-name="Path 7290" d="M550.028,1280.807v90.95H473.812v-90.95H458.684v103.85H611.115v-103.85Z" transform="translate(-458.684 -1280.807)" fill="#390075"/>
            </g>
          </g>
        </g>
        <path id="Path_7291" data-name="Path 7291" d="M394.663,916.169H140.908a1.371,1.371,0,0,1-1.371-1.371V777.042a1.37,1.37,0,0,1,.815-1.253l126.878-56.25a1.373,1.373,0,0,1,1.111,0l126.878,56.25a1.37,1.37,0,0,1,.815,1.253V914.8a1.37,1.37,0,0,1-1.371,1.371m-252.385-2.741H393.292V777.934L267.785,722.292,142.278,777.934Z" transform="translate(-116.787 -602.13)" fill="#390075"/>
        <path id="Path_7292" data-name="Path 7292" d="M604.079,1378.991H451.648a1.371,1.371,0,0,1-1.371-1.37v-103.85a1.371,1.371,0,0,1,1.371-1.371H604.079a1.37,1.37,0,0,1,1.371,1.371v103.85a1.37,1.37,0,0,1-1.371,1.37m-151.061-2.741h149.69V1275.141H453.018Z" transform="translate(-376.866 -1064.952)" fill="#390075"/>
        <rect id="Rectangle_18340" data-name="Rectangle 18340" width="152.432" height="27.314" transform="translate(74.782 208.818)" fill="#78909c"/>
        <g id="Group_58" data-name="Group 58" transform="translate(74.782 208.818)" opacity="0.5">
          <g id="Group_57" data-name="Group 57">
            <g id="Group_56" data-name="Group 56" clip-path="url(#clip-path-9)">
              <rect id="Rectangle_18341" data-name="Rectangle 18341" width="152.432" height="4.112" fill="#fff"/>
            </g>
          </g>
        </g>
        <g id="Group_61" data-name="Group 61" transform="translate(74.782 208.818)" opacity="0.3">
          <g id="Group_60" data-name="Group 60">
            <g id="Group_59" data-name="Group 59" clip-path="url(#clip-path-10)">
              <path id="Path_7293" data-name="Path 7293" d="M588.648,1280.807v7.482a9.455,9.455,0,0,1-9.454,9.455H476.952a9.454,9.454,0,0,1-9.454-9.455v-7.482h-8.813v27.315H611.115v-27.315Z" transform="translate(-458.684 -1280.807)" fill="#390075"/>
            </g>
          </g>
        </g>
        <path id="Path_7294" data-name="Path 7294" d="M692.708,1052.553H589.684a4,4,0,0,1-4-4v-20.983a4,4,0,0,1,4-4H692.708a4,4,0,0,1,4,4v20.983a4,4,0,0,1-4,4" transform="translate(-490.198 -856.694)" fill="#fff"/>
        <g id="Group_64" data-name="Group 64" transform="translate(95.488 166.88)" opacity="0.3">
          <g id="Group_63" data-name="Group 63">
            <g id="Group_62" data-name="Group 62" clip-path="url(#clip-path-11)">
              <path id="Path_7295" data-name="Path 7295" d="M692.708,1023.574H678.1v19.706a3.437,3.437,0,0,1-3.437,3.437h-75.2a3.437,3.437,0,0,1-3.437-3.437v-19.706h-6.347a4,4,0,0,0-4,4v20.983a4,4,0,0,0,4,4H692.708a4,4,0,0,0,4-4v-20.983a4,4,0,0,0-4-4" transform="translate(-585.686 -1023.574)" fill="#390075"/>
            </g>
          </g>
        </g>
        <path id="Path_7296" data-name="Path 7296" d="M604.079,1302.456H451.648a1.37,1.37,0,0,1-1.371-1.37v-27.315a1.371,1.371,0,0,1,1.371-1.371H604.079a1.37,1.37,0,0,1,1.371,1.371v27.315a1.37,1.37,0,0,1-1.371,1.37m-151.061-2.741h149.69v-24.573H453.018Z" transform="translate(-376.866 -1064.952)" fill="#390075"/>
        <path id="Path_7297" data-name="Path 7297" d="M604.079,1317.14H451.648a1.371,1.371,0,0,1,0-2.742H604.079a1.371,1.371,0,0,1,0,2.742" transform="translate(-376.866 -1100.103)" fill="#390075"/>
        <path id="Path_7298" data-name="Path 7298" d="M604.079,1358.907H451.648a1.371,1.371,0,1,1,0-2.741H604.079a1.371,1.371,0,1,1,0,2.741" transform="translate(-376.866 -1135.061)" fill="#390075"/>
        <path id="Path_7299" data-name="Path 7299" d="M604.079,1400.679H451.648a1.371,1.371,0,0,1,0-2.741H604.079a1.371,1.371,0,0,1,0,2.741" transform="translate(-376.866 -1170.023)" fill="#390075"/>
        <path id="Path_7300" data-name="Path 7300" d="M685.672,1046.886H582.647a5.374,5.374,0,0,1-5.368-5.368v-20.984a5.374,5.374,0,0,1,5.368-5.368H685.672a5.375,5.375,0,0,1,5.368,5.368v20.984a5.374,5.374,0,0,1-5.368,5.368m-103.024-28.979a2.63,2.63,0,0,0-2.627,2.627v20.984a2.63,2.63,0,0,0,2.627,2.627H685.672a2.63,2.63,0,0,0,2.627-2.627v-20.984a2.63,2.63,0,0,0-2.627-2.627Z" transform="translate(-483.162 -849.657)" fill="#390075"/>
        <path id="Path_7301" data-name="Path 7301" d="M615.217,1045.47a2.081,2.081,0,1,1-2.08-2.08,2.08,2.08,0,0,1,2.08,2.08" transform="translate(-511.432 -873.279)" fill="#390075"/>
        <path id="Path_7302" data-name="Path 7302" d="M615.217,1158.061a2.081,2.081,0,1,1-2.08-2.08,2.08,2.08,0,0,1,2.08,2.08" transform="translate(-511.432 -967.514)" fill="#390075"/>
        <path id="Path_7303" data-name="Path 7303" d="M1219.906,1045.47a2.08,2.08,0,1,1-2.08-2.08,2.08,2.08,0,0,1,2.08,2.08" transform="translate(-1017.535 -873.279)" fill="#390075"/>
        <path id="Path_7304" data-name="Path 7304" d="M1219.906,1158.061a2.08,2.08,0,1,1-2.08-2.08,2.08,2.08,0,0,1,2.08,2.08" transform="translate(-1017.535 -967.514)" fill="#390075"/>
        <rect id="Rectangle_18345" data-name="Rectangle 18345" width="44.935" height="50.164" transform="translate(173.465 262.504)" fill="#ffb74d"/>
        <g id="Group_67" data-name="Group 67" transform="translate(173.466 262.504)" opacity="0.5">
          <g id="Group_66" data-name="Group 66">
            <g id="Group_65" data-name="Group 65" clip-path="url(#clip-path-12)">
              <rect id="Rectangle_18346" data-name="Rectangle 18346" width="3.485" height="50.164" transform="translate(0 0)" fill="#fff"/>
            </g>
          </g>
        </g>
        <rect id="Rectangle_18348" data-name="Rectangle 18348" width="16.152" height="6.34" transform="translate(179.78 299.876)" fill="#fff"/>
        <g id="Group_70" data-name="Group 70" transform="translate(173.466 262.504)" opacity="0.3">
          <g id="Group_69" data-name="Group 69">
            <g id="Group_68" data-name="Group 68" clip-path="url(#clip-path-13)">
              <path id="Path_7305" data-name="Path 7305" d="M1097.417,1610.093h-33.448v4.152h8.919a2.567,2.567,0,0,1,2.567,2.567V1631.4a1.536,1.536,0,0,0,1.536,1.536h18.89a1.536,1.536,0,0,0,1.536-1.536v-15.445a1.705,1.705,0,0,1,3.411,0v23.527a11.991,11.991,0,0,1-11.991,11.991h-24.868v8.789H1108.9v-50.164Z" transform="translate(-1063.969 -1610.093)" fill="#390075"/>
            </g>
          </g>
        </g>
        <path id="Path_7306" data-name="Path 7306" d="M1101.867,1654.594h-44.935a1.37,1.37,0,0,1-1.371-1.371v-50.164a1.37,1.37,0,0,1,1.371-1.371h44.935a1.37,1.37,0,0,1,1.371,1.371v50.164a1.37,1.37,0,0,1-1.371,1.371m-43.564-2.741H1100.5v-47.423H1058.3Z" transform="translate(-883.466 -1340.554)" fill="#390075"/>
        <rect id="Rectangle_18350" data-name="Rectangle 18350" width="17.129" height="20.688" transform="translate(187.368 262.504)" fill="#ff5722"/>
        <g id="Group_73" data-name="Group 73" transform="translate(187.368 262.504)" opacity="0.5">
          <g id="Group_72" data-name="Group 72">
            <g id="Group_71" data-name="Group 71" clip-path="url(#clip-path-14)">
              <path id="Path_7307" data-name="Path 7307" d="M1152.922,1612.466h13.452v-2.373h-17.129v20.688h2.076v-16.715a1.6,1.6,0,0,1,1.6-1.6" transform="translate(-1149.244 -1610.093)" fill="#fff"/>
            </g>
          </g>
        </g>
        <g id="Group_76" data-name="Group 76" transform="translate(187.368 262.504)" opacity="0.3">
          <g id="Group_75" data-name="Group 75">
            <g id="Group_74" data-name="Group 74" clip-path="url(#clip-path-14)">
              <path id="Path_7308" data-name="Path 7308" d="M1161.7,1610.093V1624a4.406,4.406,0,0,1-4.406,4.406h-8.052v2.373h17.129v-20.688Z" transform="translate(-1149.243 -1610.093)" fill="#390075"/>
            </g>
          </g>
        </g>
        <path id="Path_7309" data-name="Path 7309" d="M1159.338,1625.117H1142.21a1.37,1.37,0,0,1-1.371-1.37v-20.688a1.37,1.37,0,0,1,1.371-1.371h17.129a1.37,1.37,0,0,1,1.371,1.371v20.688a1.37,1.37,0,0,1-1.371,1.37m-15.758-2.741h14.387v-17.946H1143.58Z" transform="translate(-954.841 -1340.554)" fill="#390075"/>
        <path id="Path_7310" data-name="Path 7310" d="M1111.818,1839.991h-16.152a1.371,1.371,0,0,1-1.371-1.371v-6.339a1.371,1.371,0,0,1,1.371-1.371h16.152a1.371,1.371,0,0,1,1.37,1.371v6.339a1.371,1.371,0,0,1-1.37,1.371m-14.782-2.741h13.411v-3.6h-13.411Z" transform="translate(-915.885 -1532.405)" fill="#390075"/>
        <g id="Group_79" data-name="Group 79" transform="translate(191.181 268.288)" opacity="0.3">
          <g id="Group_78" data-name="Group 78">
            <g id="Group_77" data-name="Group 77" clip-path="url(#clip-path-16)">
              <path id="Path_7311" data-name="Path 7311" d="M1176.523,1650.128c0,2.519-.871,4.56-1.946,4.56s-1.946-2.042-1.946-4.56.871-4.56,1.946-4.56,1.946,2.042,1.946,4.56" transform="translate(-1172.63 -1645.568)" fill="#fff"/>
            </g>
          </g>
        </g>
        <rect id="Rectangle_18354" data-name="Rectangle 18354" width="44.935" height="50.164" transform="translate(128.53 262.504)" fill="#ffb74d"/>
        <g id="Group_82" data-name="Group 82" transform="translate(128.53 262.504)" opacity="0.5">
          <g id="Group_81" data-name="Group 81">
            <g id="Group_80" data-name="Group 80" clip-path="url(#clip-path-17)">
              <rect id="Rectangle_18355" data-name="Rectangle 18355" width="3.485" height="50.164" transform="translate(0 0)" fill="#fff"/>
            </g>
          </g>
        </g>
        <rect id="Rectangle_18357" data-name="Rectangle 18357" width="16.152" height="6.34" transform="translate(134.846 299.876)" fill="#fff"/>
        <g id="Group_85" data-name="Group 85" transform="translate(128.53 262.504)" opacity="0.3">
          <g id="Group_84" data-name="Group 84">
            <g id="Group_83" data-name="Group 83" clip-path="url(#clip-path-18)">
              <path id="Path_7312" data-name="Path 7312" d="M821.8,1610.093H788.356v4.152h8.919a2.567,2.567,0,0,1,2.567,2.567V1631.4a1.536,1.536,0,0,0,1.536,1.536h18.89a1.536,1.536,0,0,0,1.536-1.536v-15.445a1.705,1.705,0,0,1,3.411,0v23.527a11.991,11.991,0,0,1-11.991,11.991H788.356v8.789h44.935v-50.164Z" transform="translate(-788.356 -1610.093)" fill="#390075"/>
            </g>
          </g>
        </g>
        <path id="Path_7313" data-name="Path 7313" d="M826.254,1654.594H781.319a1.371,1.371,0,0,1-1.371-1.371v-50.164a1.371,1.371,0,0,1,1.371-1.371h44.935a1.37,1.37,0,0,1,1.371,1.371v50.164a1.37,1.37,0,0,1-1.371,1.371m-43.564-2.741h42.194v-47.423H782.689Z" transform="translate(-652.788 -1340.554)" fill="#390075"/>
        <rect id="Rectangle_18359" data-name="Rectangle 18359" width="17.129" height="20.688" transform="translate(142.434 262.504)" fill="#ff5722"/>
        <g id="Group_88" data-name="Group 88" transform="translate(142.433 262.504)" opacity="0.5">
          <g id="Group_87" data-name="Group 87">
            <g id="Group_86" data-name="Group 86" clip-path="url(#clip-path-19)">
              <path id="Path_7314" data-name="Path 7314" d="M877.308,1612.466H890.76v-2.373H873.631v20.688h2.076v-16.715a1.6,1.6,0,0,1,1.6-1.6" transform="translate(-873.631 -1610.093)" fill="#fff"/>
            </g>
          </g>
        </g>
        <g id="Group_91" data-name="Group 91" transform="translate(142.433 262.504)" opacity="0.3">
          <g id="Group_90" data-name="Group 90">
            <g id="Group_89" data-name="Group 89" clip-path="url(#clip-path-19)">
              <path id="Path_7315" data-name="Path 7315" d="M886.088,1610.093V1624a4.406,4.406,0,0,1-4.406,4.406h-8.052v2.373H890.76v-20.688Z" transform="translate(-873.631 -1610.093)" fill="#390075"/>
            </g>
          </g>
        </g>
        <path id="Path_7316" data-name="Path 7316" d="M883.724,1625.117H866.6a1.37,1.37,0,0,1-1.37-1.37v-20.688a1.37,1.37,0,0,1,1.37-1.371h17.128a1.37,1.37,0,0,1,1.371,1.371v20.688a1.37,1.37,0,0,1-1.371,1.37m-15.758-2.741h14.387v-17.946H867.966Z" transform="translate(-724.162 -1340.554)" fill="#390075"/>
        <path id="Path_7317" data-name="Path 7317" d="M836.205,1839.991H820.053a1.371,1.371,0,0,1-1.371-1.371v-6.339a1.371,1.371,0,0,1,1.371-1.371h16.152a1.37,1.37,0,0,1,1.37,1.371v6.339a1.37,1.37,0,0,1-1.37,1.371m-14.782-2.741h13.411v-3.6H821.423Z" transform="translate(-685.207 -1532.405)" fill="#390075"/>
        <g id="Group_94" data-name="Group 94" transform="translate(146.246 268.288)" opacity="0.3">
          <g id="Group_93" data-name="Group 93">
            <g id="Group_92" data-name="Group 92" clip-path="url(#clip-path-16)">
              <path id="Path_7318" data-name="Path 7318" d="M900.909,1650.128c0,2.519-.871,4.56-1.947,4.56s-1.946-2.042-1.946-4.56.871-4.56,1.946-4.56,1.947,2.042,1.947,4.56" transform="translate(-897.016 -1645.568)" fill="#fff"/>
            </g>
          </g>
        </g>
        <rect id="Rectangle_18363" data-name="Rectangle 18363" width="44.935" height="50.164" transform="translate(83.595 262.504)" fill="#ffb74d"/>
        <g id="Group_97" data-name="Group 97" transform="translate(83.595 262.504)" opacity="0.5">
          <g id="Group_96" data-name="Group 96">
            <g id="Group_95" data-name="Group 95" clip-path="url(#clip-path-17)">
              <rect id="Rectangle_18364" data-name="Rectangle 18364" width="3.485" height="50.164" transform="translate(0 0)" fill="#fff"/>
            </g>
          </g>
        </g>
        <rect id="Rectangle_18366" data-name="Rectangle 18366" width="16.152" height="6.34" transform="translate(89.911 299.876)" fill="#fff"/>
        <g id="Group_100" data-name="Group 100" transform="translate(83.595 262.504)" opacity="0.3">
          <g id="Group_99" data-name="Group 99">
            <g id="Group_98" data-name="Group 98" clip-path="url(#clip-path-18)">
              <path id="Path_7319" data-name="Path 7319" d="M546.19,1610.093H512.742v4.152h8.919a2.567,2.567,0,0,1,2.567,2.567V1631.4a1.536,1.536,0,0,0,1.536,1.536h18.89a1.536,1.536,0,0,0,1.536-1.536v-15.445a1.705,1.705,0,0,1,3.411,0v23.527a11.991,11.991,0,0,1-11.991,11.991H512.742v8.789h44.935v-50.164Z" transform="translate(-512.742 -1610.093)" fill="#390075"/>
            </g>
          </g>
        </g>
        <path id="Path_7320" data-name="Path 7320" d="M550.641,1654.594H505.707a1.371,1.371,0,0,1-1.37-1.371v-50.164a1.371,1.371,0,0,1,1.37-1.371h44.935a1.371,1.371,0,0,1,1.371,1.371v50.164a1.371,1.371,0,0,1-1.371,1.371m-43.564-2.741h42.194v-47.423H507.077Z" transform="translate(-422.111 -1340.554)" fill="#390075"/>
        <rect id="Rectangle_18368" data-name="Rectangle 18368" width="17.129" height="20.688" transform="translate(97.499 262.504)" fill="#ff5722"/>
        <g id="Group_103" data-name="Group 103" transform="translate(97.499 262.504)" opacity="0.5">
          <g id="Group_102" data-name="Group 102">
            <g id="Group_101" data-name="Group 101" clip-path="url(#clip-path-19)">
              <path id="Path_7321" data-name="Path 7321" d="M601.695,1612.466h13.452v-2.373H598.018v20.688h2.076v-16.715a1.6,1.6,0,0,1,1.6-1.6" transform="translate(-598.018 -1610.093)" fill="#fff"/>
            </g>
          </g>
        </g>
        <g id="Group_106" data-name="Group 106" transform="translate(97.499 262.504)" opacity="0.3">
          <g id="Group_105" data-name="Group 105">
            <g id="Group_104" data-name="Group 104" clip-path="url(#clip-path-19)">
              <path id="Path_7322" data-name="Path 7322" d="M610.475,1610.093V1624a4.406,4.406,0,0,1-4.406,4.406h-8.052v2.373h17.129v-20.688Z" transform="translate(-598.018 -1610.093)" fill="#390075"/>
            </g>
          </g>
        </g>
        <path id="Path_7323" data-name="Path 7323" d="M608.111,1625.117H590.983a1.37,1.37,0,0,1-1.371-1.37v-20.688a1.371,1.371,0,0,1,1.371-1.371h17.129a1.371,1.371,0,0,1,1.371,1.371v20.688a1.37,1.37,0,0,1-1.371,1.37m-15.758-2.741h14.388v-17.946H592.353Z" transform="translate(-493.484 -1340.554)" fill="#390075"/>
        <path id="Path_7324" data-name="Path 7324" d="M560.592,1839.991H544.44a1.371,1.371,0,0,1-1.371-1.371v-6.339a1.371,1.371,0,0,1,1.371-1.371h16.153a1.371,1.371,0,0,1,1.371,1.371v6.339a1.371,1.371,0,0,1-1.371,1.371m-14.782-2.741h13.411v-3.6H545.81Z" transform="translate(-454.529 -1532.405)" fill="#390075"/>
        <g id="Group_109" data-name="Group 109" transform="translate(101.311 268.288)" opacity="0.3">
          <g id="Group_108" data-name="Group 108">
            <g id="Group_107" data-name="Group 107" clip-path="url(#clip-path-16)">
              <path id="Path_7325" data-name="Path 7325" d="M625.3,1650.128c0,2.519-.871,4.56-1.947,4.56s-1.946-2.042-1.946-4.56.871-4.56,1.946-4.56,1.947,2.042,1.947,4.56" transform="translate(-621.403 -1645.568)" fill="#fff"/>
            </g>
          </g>
        </g>
        <path id="Path_7326" data-name="Path 7326" d="M303.6,1912.117H5.787a1.371,1.371,0,1,1,0-2.741H303.6a1.371,1.371,0,1,1,0,2.741" transform="translate(-3.696 -1598.078)" fill="#390075"/>
        <path id="Path_7327" data-name="Path 7327" d="M354.674,1726.27H310.247a2.374,2.374,0,0,1-2.374-2.374v-32.557a2.374,2.374,0,0,1,2.374-2.374h44.427a2.374,2.374,0,0,1,2.374,2.374V1723.9a2.374,2.374,0,0,1-2.374,2.374" transform="translate(-257.679 -1413.602)" fill="#ffb74d"/>
        <g id="Group_112" data-name="Group 112" transform="translate(50.194 275.363)" opacity="0.5">
          <g id="Group_111" data-name="Group 111">
            <g id="Group_110" data-name="Group 110" clip-path="url(#clip-path-27)">
              <path id="Path_7328" data-name="Path 7328" d="M309.963,1725.507V1692.95a2.374,2.374,0,0,1,2.374-2.374h44.427c.053,0,.105,0,.158.008a2.374,2.374,0,0,0-2.249-1.619H310.246a2.374,2.374,0,0,0-2.374,2.374V1723.9a2.372,2.372,0,0,0,2.216,2.366,2.366,2.366,0,0,1-.125-.755" transform="translate(-307.872 -1688.965)" fill="#fff"/>
            </g>
          </g>
        </g>
        <rect id="Rectangle_18373" data-name="Rectangle 18373" width="13.989" height="3.674" transform="translate(80.604 305.207)" fill="#fff"/>
        <path id="Path_7329" data-name="Path 7329" d="M501.345,1870.028h-13.99a1.371,1.371,0,0,1-1.371-1.371v-3.674a1.371,1.371,0,0,1,1.371-1.371h13.99a1.371,1.371,0,0,1,1.371,1.371v3.674a1.371,1.371,0,0,1-1.371,1.371m-12.619-2.741h11.248v-.933H488.726Z" transform="translate(-406.752 -1559.776)" fill="#390075"/>
        <rect id="Rectangle_18374" data-name="Rectangle 18374" width="9.044" height="5.652" transform="translate(54.971 303.229)" fill="#fff"/>
        <path id="Path_7330" data-name="Path 7330" d="M339.176,1859.872h-9.044a1.37,1.37,0,0,1-1.371-1.371v-5.652a1.371,1.371,0,0,1,1.371-1.371h9.044a1.371,1.371,0,0,1,1.371,1.371v5.652a1.37,1.37,0,0,1-1.371,1.371m-7.673-2.741h6.3v-2.911h-6.3Z" transform="translate(-275.162 -1549.62)" fill="#390075"/>
        <g id="Group_115" data-name="Group 115" transform="translate(50.194 275.363)" opacity="0.3">
          <g id="Group_114" data-name="Group 114">
            <g id="Group_113" data-name="Group 113" clip-path="url(#clip-path-28)">
              <path id="Path_7331" data-name="Path 7331" d="M354.674,1688.965H310.247a2.374,2.374,0,0,0-2.36,2.12h10.389a1.972,1.972,0,0,1,1.972,1.972v11.235l3.052,1.518,3.052-1.518,3.052,1.518,3.053-1.518,3.054,1.518,3.053-1.518,3.055,1.518,3.055-1.518v-11.235a1.972,1.972,0,0,1,1.972-1.972h1.71a1.91,1.91,0,0,1,1.91,1.91v21.926a1.91,1.91,0,0,1-1.91,1.91H307.873v7.065a2.374,2.374,0,0,0,2.374,2.374h44.427a2.374,2.374,0,0,0,2.374-2.374v-32.557a2.374,2.374,0,0,0-2.374-2.374" transform="translate(-307.873 -1688.965)" fill="#390075"/>
            </g>
          </g>
        </g>
        <path id="Path_7332" data-name="Path 7332" d="M400.266,1688.965v12.6l2.38,1.143,2.38-1.143,2.38,1.143,2.381-1.143,2.382,1.143,2.381-1.143,2.382,1.143,2.382-1.143v-12.6Z" transform="translate(-335.008 -1413.602)" fill="#ff5722"/>
        <g id="Group_118" data-name="Group 118" transform="translate(65.258 275.363)" opacity="0.5">
          <g id="Group_117" data-name="Group 117">
            <g id="Group_116" data-name="Group 116" clip-path="url(#clip-path-29)">
              <path id="Path_7333" data-name="Path 7333" d="M403.391,1690.915h15.923v-1.95H400.266v12.6l1.908.916v-10.347a1.218,1.218,0,0,1,1.218-1.218" transform="translate(-400.266 -1688.965)" fill="#fff"/>
            </g>
          </g>
        </g>
        <g id="Group_121" data-name="Group 121" transform="translate(65.258 275.363)" opacity="0.3">
          <g id="Group_120" data-name="Group 120">
            <g id="Group_119" data-name="Group 119" clip-path="url(#clip-path-30)">
              <path id="Path_7334" data-name="Path 7334" d="M414.736,1688.965v7.515a2.353,2.353,0,0,1-1.335,2.121l-1.047.5-2.382-1.143-2.381,1.143-2.382-1.143-2.381,1.143-2.38-1.143-.182.087v3.516l2.38,1.143,2.38-1.143,2.38,1.143,2.381-1.143,2.382,1.143,2.381-1.143,2.382,1.143,2.382-1.143v-12.6Z" transform="translate(-400.266 -1688.965)" fill="#390075"/>
            </g>
          </g>
        </g>
        <path id="Path_7335" data-name="Path 7335" d="M395.61,1697.042a1.369,1.369,0,0,1-.593-.135l-2.38-1.143a1.37,1.37,0,0,1-.777-1.235v-12.6a1.371,1.371,0,0,1,1.371-1.371h19.049a1.371,1.371,0,0,1,1.37,1.371v12.6a1.371,1.371,0,0,1-.777,1.236l-2.383,1.143a1.375,1.375,0,0,1-1.186,0l-1.789-.859-1.788.858a1.372,1.372,0,0,1-1.186,0l-1.789-.859-1.788.858a1.369,1.369,0,0,1-1.187,0l-1.787-.858-1.787.858a1.371,1.371,0,0,1-.593.135m11.9-3.884a1.371,1.371,0,0,1,.593.135l1.789.859,1.012-.485V1683.3H394.6v10.365l1.009.485,1.787-.858a1.371,1.371,0,0,1,1.187,0l1.787.858,1.788-.858a1.373,1.373,0,0,1,1.186,0l1.788.858,1.788-.858a1.367,1.367,0,0,1,.593-.135" transform="translate(-327.972 -1406.566)" fill="#390075"/>
        <path id="Path_7336" data-name="Path 7336" d="M347.637,1720.606H303.21a3.749,3.749,0,0,1-3.745-3.745V1684.3a3.749,3.749,0,0,1,3.745-3.745h44.427a3.749,3.749,0,0,1,3.745,3.745v32.557a3.749,3.749,0,0,1-3.745,3.745M303.21,1683.3a1,1,0,0,0-1,1v32.557a1,1,0,0,0,1,1h44.427a1,1,0,0,0,1-1V1684.3a1,1,0,0,0-1-1Z" transform="translate(-250.641 -1406.566)" fill="#390075"/>
      </g>
    </g>
    <text id="STORE" transform="translate(127.16 181.426)" fill="#390075" font-size="10" font-family="Montserrat-Bold, Montserrat" font-weight="700"><tspan x="0" y="0" letter-spacing="0.032em">ST</tspan><tspan y="0" letter-spacing="0.041em">O</tspan><tspan y="0" letter-spacing="0.042em">R</tspan><tspan y="0">E</tspan></text>
  </g>
</svg>
